<?xml version="1.0" encoding="UTF-8"?>
<svg width="184px" height="32px" viewBox="0 0 184 32" version="1.1" xmlns="http://www.w3.org/2000/svg" xmlns:xlink="http://www.w3.org/1999/xlink">
    <title>impetus-logo</title>
    <g id="Website-Pages" stroke="none" stroke-width="1" fill="none" fill-rule="evenodd">
        <g id="Desktop-/-Hero-Copy" transform="translate(-50, -32)" fill="#00A291">
            <path d="M188.822037,32.6155252 L185.39361,52.1320578 C185.349354,52.4398203 185.30591,52.8356891 185.30591,53.2750019 C185.30591,55.9563529 187.063973,57.7144162 190.185043,57.7144162 C193.349557,57.7144162 195.723552,55.5604842 196.382927,51.9119953 L199.767097,32.6155252 L207.327581,32.6155252 L203.943005,51.9119953 C202.668511,59.2532291 197.393915,64 189.657218,64 C183.591291,64 177.701576,60.4400233 177.701576,53.8458649 C177.701576,53.0991956 177.789276,52.5275205 177.876976,51.9119953 L181.261959,32.6155252 L188.822037,32.6155252 Z M222.371406,32 C228.480778,32 234.239348,35.3411323 232.964448,41.7144162 L232.920192,41.9340726 L225.799426,41.9340726 L225.843683,41.7144162 C226.371102,39.1211714 224.085619,37.9343771 221.580075,37.9343771 C219.426143,37.9343771 217.008704,38.7257086 217.008704,41.4947598 C217.008704,42.5934479 217.624229,43.1651229 218.766767,43.4728855 L225.799426,45.2752049 C230.01959,46.373893 232.305073,49.0113939 232.305073,52.6598828 C232.305073,59.6048418 226.634608,64 218.854467,64 C212.129165,64 206.1956,60.3957672 207.382394,54.1544396 L207.513944,53.4508082 L214.722816,53.4508082 L214.635116,53.9343771 C214.107291,56.8792347 216.744792,58.0660289 219.513843,58.0660289 C222.23945,58.0660289 224.789251,56.7915345 224.789251,54.1544396 C224.789251,53.0106834 224.041363,52.0439516 222.678763,51.736189 L216.129266,50.1543381 C211.953359,49.1429441 209.57977,47.0332682 209.57977,43.0770168 C209.57977,35.8685513 214.195803,32 222.371406,32 Z M62.9670363,32.6155252 L57.5608902,63.3848809 L50,63.3848809 L54.4601213,38.0021824 L51.0174842,32.7779329 L50.8952724,32.6922628 L55.425229,32.6151191 L62.9670363,32.6155252 Z M75.1687264,32.6155252 L80.3556221,48.8355876 L91.0810262,32.6155252 L98.2017916,32.6155252 L92.7952394,63.3848809 L85.5429238,63.3848809 L88.2677189,47.9561499 L82.1136854,56.9673408 L76.048164,56.9673408 L72.9270942,47.0771183 L70.0699368,63.3848809 L62.7729591,63.3848809 L68.2237674,32.6155252 L75.1687264,32.6155252 Z M116.358972,32.6155252 C122.249093,32.6155252 126.469257,36.6594767 126.469257,42.0664349 C126.469257,49.8023194 121.106149,54.2859898 112.710889,54.2859898 L107.12853,54.2859898 L105.502423,63.3848809 L98.1725582,63.3848809 L103.304235,32.6155252 Z M152.804882,32.6155252 L151.706194,38.901515 L137.508108,38.901515 L136.497526,44.6596798 L149.420712,44.6596798 L148.277768,50.9452635 L135.354176,50.9452635 L134.299338,57.0992971 L148.541274,57.0992971 L147.442586,63.3848809 L125.639759,63.3848809 L131.046312,32.6155252 L152.804882,32.6155252 Z M178.996371,32.6155252 L177.853427,38.9892151 L169.633974,38.9892151 L165.36996,63.3848809 L157.809475,63.3848809 L162.073083,38.9892151 L153.85363,38.9892151 L154.996574,32.6155252 L178.996371,32.6155252 Z M114.820565,38.901515 L109.810288,38.901515 L108.227219,48.000406 L113.282564,48.000406 C116.931053,48.000406 118.864922,45.8022179 118.864922,42.7692542 C118.864922,40.7034283 117.590428,38.901515 114.820565,38.901515 Z" id="impetus-logo"></path>
        </g>
    </g>
</svg>